<mxfile host="app.diagrams.net" modified="2022-02-25T04:28:25.598Z" agent="5.0 (Windows NT 10.0; Win64; x64) AppleWebKit/537.36 (KHTML, like Gecko) Chrome/98.0.4758.105 Safari/537.36" etag="mIqv385dV-cbwX-FXCkt" version="16.6.4" type="github">
  <diagram id="Ke_nG4Q9ynyGzJTYuLL3" name="Page-1">
    <mxGraphModel dx="953" dy="671" grid="1" gridSize="10" guides="1" tooltips="1" connect="1" arrows="1" fold="1" page="1" pageScale="1" pageWidth="827" pageHeight="1169" math="0" shadow="0">
      <root>
        <mxCell id="0" />
        <mxCell id="1" parent="0" />
        <mxCell id="QcOfOcUlasyj0Duc0Whq-25" style="edgeStyle=orthogonalEdgeStyle;rounded=0;orthogonalLoop=1;jettySize=auto;html=1;fontSize=13;fontStyle=1" parent="1" source="QcOfOcUlasyj0Duc0Whq-1" target="QcOfOcUlasyj0Duc0Whq-24" edge="1">
          <mxGeometry relative="1" as="geometry" />
        </mxCell>
        <mxCell id="QcOfOcUlasyj0Duc0Whq-1" value="Начало" style="rounded=1;whiteSpace=wrap;html=1;fontSize=20;fontStyle=1" parent="1" vertex="1">
          <mxGeometry x="500" y="80" width="120" height="60" as="geometry" />
        </mxCell>
        <mxCell id="QcOfOcUlasyj0Duc0Whq-4" style="edgeStyle=orthogonalEdgeStyle;rounded=0;orthogonalLoop=1;jettySize=auto;html=1;entryX=0.5;entryY=0;entryDx=0;entryDy=0;fontSize=13;fontStyle=1" parent="1" source="QcOfOcUlasyj0Duc0Whq-2" target="QcOfOcUlasyj0Duc0Whq-3" edge="1">
          <mxGeometry relative="1" as="geometry" />
        </mxCell>
        <mxCell id="QcOfOcUlasyj0Duc0Whq-2" value="Square()" style="rounded=1;whiteSpace=wrap;html=1;fontSize=13;fontStyle=1" parent="1" vertex="1">
          <mxGeometry x="110" y="80" width="120" height="60" as="geometry" />
        </mxCell>
        <mxCell id="QcOfOcUlasyj0Duc0Whq-6" style="edgeStyle=orthogonalEdgeStyle;rounded=0;orthogonalLoop=1;jettySize=auto;html=1;entryX=0.5;entryY=0;entryDx=0;entryDy=0;fontSize=13;fontStyle=1" parent="1" source="QcOfOcUlasyj0Duc0Whq-3" target="QcOfOcUlasyj0Duc0Whq-5" edge="1">
          <mxGeometry relative="1" as="geometry" />
        </mxCell>
        <mxCell id="QcOfOcUlasyj0Duc0Whq-3" value="Иницилизация двумерного массива Coordinates" style="rounded=0;whiteSpace=wrap;html=1;fontSize=13;fontStyle=1" parent="1" vertex="1">
          <mxGeometry x="110" y="160" width="120" height="60" as="geometry" />
        </mxCell>
        <mxCell id="QcOfOcUlasyj0Duc0Whq-8" style="edgeStyle=orthogonalEdgeStyle;rounded=0;orthogonalLoop=1;jettySize=auto;html=1;fontSize=13;fontStyle=1" parent="1" source="QcOfOcUlasyj0Duc0Whq-5" target="QcOfOcUlasyj0Duc0Whq-7" edge="1">
          <mxGeometry relative="1" as="geometry" />
        </mxCell>
        <mxCell id="byHE57jVhLd3wYmcXYX9-2" style="edgeStyle=orthogonalEdgeStyle;rounded=0;orthogonalLoop=1;jettySize=auto;html=1;fontSize=13;" edge="1" parent="1" source="QcOfOcUlasyj0Duc0Whq-5" target="byHE57jVhLd3wYmcXYX9-1">
          <mxGeometry relative="1" as="geometry">
            <Array as="points">
              <mxPoint x="300" y="265" />
              <mxPoint x="300" y="730" />
              <mxPoint x="170" y="730" />
            </Array>
          </mxGeometry>
        </mxCell>
        <mxCell id="QcOfOcUlasyj0Duc0Whq-5" value="int i = 0; i&amp;lt;3; i++" style="shape=hexagon;perimeter=hexagonPerimeter2;whiteSpace=wrap;html=1;fixedSize=1;fontSize=13;fontStyle=1" parent="1" vertex="1">
          <mxGeometry x="110" y="240" width="120" height="50" as="geometry" />
        </mxCell>
        <mxCell id="QcOfOcUlasyj0Duc0Whq-10" style="edgeStyle=orthogonalEdgeStyle;rounded=0;orthogonalLoop=1;jettySize=auto;html=1;fontSize=13;fontStyle=1" parent="1" source="QcOfOcUlasyj0Duc0Whq-7" target="QcOfOcUlasyj0Duc0Whq-9" edge="1">
          <mxGeometry relative="1" as="geometry" />
        </mxCell>
        <mxCell id="QcOfOcUlasyj0Duc0Whq-7" value="Ввод string XY" style="shape=parallelogram;perimeter=parallelogramPerimeter;whiteSpace=wrap;html=1;fixedSize=1;fontSize=13;fontStyle=1" parent="1" vertex="1">
          <mxGeometry x="110" y="310" width="120" height="40" as="geometry" />
        </mxCell>
        <mxCell id="QcOfOcUlasyj0Duc0Whq-12" style="edgeStyle=orthogonalEdgeStyle;rounded=0;orthogonalLoop=1;jettySize=auto;html=1;fontSize=13;fontStyle=1" parent="1" source="QcOfOcUlasyj0Duc0Whq-9" target="QcOfOcUlasyj0Duc0Whq-11" edge="1">
          <mxGeometry relative="1" as="geometry" />
        </mxCell>
        <mxCell id="QcOfOcUlasyj0Duc0Whq-9" value="Инициализация массива splitXY и разделение по знаку пробелу&amp;nbsp;" style="rounded=0;whiteSpace=wrap;html=1;fontSize=13;fontStyle=1" parent="1" vertex="1">
          <mxGeometry x="110" y="370" width="120" height="70" as="geometry" />
        </mxCell>
        <mxCell id="QcOfOcUlasyj0Duc0Whq-13" style="edgeStyle=orthogonalEdgeStyle;rounded=0;orthogonalLoop=1;jettySize=auto;html=1;entryX=0;entryY=0.5;entryDx=0;entryDy=0;fontSize=13;fontStyle=1" parent="1" source="QcOfOcUlasyj0Duc0Whq-11" target="QcOfOcUlasyj0Duc0Whq-5" edge="1">
          <mxGeometry relative="1" as="geometry">
            <Array as="points">
              <mxPoint x="90" y="485" />
              <mxPoint x="90" y="265" />
            </Array>
          </mxGeometry>
        </mxCell>
        <mxCell id="QcOfOcUlasyj0Duc0Whq-17" style="edgeStyle=orthogonalEdgeStyle;rounded=0;orthogonalLoop=1;jettySize=auto;html=1;fontSize=13;fontStyle=1" parent="1" source="QcOfOcUlasyj0Duc0Whq-11" target="QcOfOcUlasyj0Duc0Whq-14" edge="1">
          <mxGeometry relative="1" as="geometry" />
        </mxCell>
        <mxCell id="QcOfOcUlasyj0Duc0Whq-11" value="int j = 0; j&amp;lt;2; j++" style="shape=hexagon;perimeter=hexagonPerimeter2;whiteSpace=wrap;html=1;fixedSize=1;fontSize=13;fontStyle=1" parent="1" vertex="1">
          <mxGeometry x="110" y="460" width="120" height="50" as="geometry" />
        </mxCell>
        <mxCell id="QcOfOcUlasyj0Duc0Whq-16" style="edgeStyle=orthogonalEdgeStyle;rounded=0;orthogonalLoop=1;jettySize=auto;html=1;fontSize=13;fontStyle=1" parent="1" source="QcOfOcUlasyj0Duc0Whq-14" target="QcOfOcUlasyj0Duc0Whq-15" edge="1">
          <mxGeometry relative="1" as="geometry" />
        </mxCell>
        <mxCell id="QcOfOcUlasyj0Duc0Whq-14" value="Int buffer" style="rounded=0;whiteSpace=wrap;html=1;fontSize=13;fontStyle=1" parent="1" vertex="1">
          <mxGeometry x="110" y="530" width="120" height="40" as="geometry" />
        </mxCell>
        <mxCell id="QcOfOcUlasyj0Duc0Whq-19" style="edgeStyle=orthogonalEdgeStyle;rounded=0;orthogonalLoop=1;jettySize=auto;html=1;fontSize=13;fontStyle=1" parent="1" source="QcOfOcUlasyj0Duc0Whq-15" target="QcOfOcUlasyj0Duc0Whq-18" edge="1">
          <mxGeometry relative="1" as="geometry" />
        </mxCell>
        <mxCell id="QcOfOcUlasyj0Duc0Whq-15" value="Конвертация строковых значений в числовые" style="rounded=0;whiteSpace=wrap;html=1;fontSize=13;fontStyle=1" parent="1" vertex="1">
          <mxGeometry x="110" y="590" width="120" height="60" as="geometry" />
        </mxCell>
        <mxCell id="QcOfOcUlasyj0Duc0Whq-20" style="edgeStyle=orthogonalEdgeStyle;rounded=0;orthogonalLoop=1;jettySize=auto;html=1;entryX=1;entryY=0.5;entryDx=0;entryDy=0;fontSize=13;fontStyle=1" parent="1" source="QcOfOcUlasyj0Duc0Whq-18" target="QcOfOcUlasyj0Duc0Whq-11" edge="1">
          <mxGeometry relative="1" as="geometry">
            <Array as="points">
              <mxPoint x="250" y="700" />
              <mxPoint x="250" y="485" />
            </Array>
          </mxGeometry>
        </mxCell>
        <mxCell id="QcOfOcUlasyj0Duc0Whq-18" value="Запись в&amp;nbsp;Coordinates[i,j]" style="rounded=0;whiteSpace=wrap;html=1;fontSize=13;fontStyle=1" parent="1" vertex="1">
          <mxGeometry x="110" y="670" width="120" height="50" as="geometry" />
        </mxCell>
        <mxCell id="QcOfOcUlasyj0Duc0Whq-21" value="return formula" style="rounded=1;whiteSpace=wrap;html=1;fontSize=13;fontStyle=1" parent="1" vertex="1">
          <mxGeometry x="110" y="840" width="120" height="60" as="geometry" />
        </mxCell>
        <mxCell id="QcOfOcUlasyj0Duc0Whq-27" style="edgeStyle=orthogonalEdgeStyle;rounded=0;orthogonalLoop=1;jettySize=auto;html=1;fontSize=13;fontStyle=1" parent="1" source="QcOfOcUlasyj0Duc0Whq-24" target="QcOfOcUlasyj0Duc0Whq-26" edge="1">
          <mxGeometry relative="1" as="geometry" />
        </mxCell>
        <mxCell id="QcOfOcUlasyj0Duc0Whq-24" value="Инициализация вещественного массива Buffer" style="rounded=0;whiteSpace=wrap;html=1;fontSize=13;fontStyle=1" parent="1" vertex="1">
          <mxGeometry x="500" y="160" width="120" height="60" as="geometry" />
        </mxCell>
        <mxCell id="QcOfOcUlasyj0Duc0Whq-29" style="edgeStyle=orthogonalEdgeStyle;rounded=0;orthogonalLoop=1;jettySize=auto;html=1;entryX=0.5;entryY=0;entryDx=0;entryDy=0;fontSize=13;fontStyle=1" parent="1" source="QcOfOcUlasyj0Duc0Whq-26" target="QcOfOcUlasyj0Duc0Whq-28" edge="1">
          <mxGeometry relative="1" as="geometry" />
        </mxCell>
        <mxCell id="QcOfOcUlasyj0Duc0Whq-26" value="Buffer[0]=0" style="rounded=0;whiteSpace=wrap;html=1;fontSize=13;fontStyle=1" parent="1" vertex="1">
          <mxGeometry x="500" y="240" width="120" height="55" as="geometry" />
        </mxCell>
        <mxCell id="QcOfOcUlasyj0Duc0Whq-31" style="edgeStyle=orthogonalEdgeStyle;rounded=0;orthogonalLoop=1;jettySize=auto;html=1;fontSize=13;fontStyle=1" parent="1" source="QcOfOcUlasyj0Duc0Whq-28" target="QcOfOcUlasyj0Duc0Whq-30" edge="1">
          <mxGeometry relative="1" as="geometry" />
        </mxCell>
        <mxCell id="QcOfOcUlasyj0Duc0Whq-49" style="edgeStyle=orthogonalEdgeStyle;rounded=0;orthogonalLoop=1;jettySize=auto;html=1;entryX=0.5;entryY=0;entryDx=0;entryDy=0;fontSize=13;fontStyle=1" parent="1" source="QcOfOcUlasyj0Duc0Whq-28" target="QcOfOcUlasyj0Duc0Whq-48" edge="1">
          <mxGeometry relative="1" as="geometry">
            <Array as="points">
              <mxPoint x="780" y="345" />
              <mxPoint x="780" y="660" />
              <mxPoint x="560" y="660" />
            </Array>
          </mxGeometry>
        </mxCell>
        <mxCell id="QcOfOcUlasyj0Duc0Whq-28" value="int i = 0; i&amp;lt;2; i++" style="shape=hexagon;perimeter=hexagonPerimeter2;whiteSpace=wrap;html=1;fixedSize=1;fontSize=13;fontStyle=1" parent="1" vertex="1">
          <mxGeometry x="500" y="320" width="120" height="50" as="geometry" />
        </mxCell>
        <mxCell id="QcOfOcUlasyj0Duc0Whq-33" style="edgeStyle=orthogonalEdgeStyle;rounded=0;orthogonalLoop=1;jettySize=auto;html=1;fontSize=13;fontStyle=1" parent="1" source="QcOfOcUlasyj0Duc0Whq-30" target="QcOfOcUlasyj0Duc0Whq-32" edge="1">
          <mxGeometry relative="1" as="geometry" />
        </mxCell>
        <mxCell id="QcOfOcUlasyj0Duc0Whq-30" value="double triangleSquare = Square()" style="rounded=0;whiteSpace=wrap;html=1;fontSize=13;fontStyle=1" parent="1" vertex="1">
          <mxGeometry x="500" y="390" width="120" height="50" as="geometry" />
        </mxCell>
        <mxCell id="QcOfOcUlasyj0Duc0Whq-41" style="edgeStyle=orthogonalEdgeStyle;rounded=0;orthogonalLoop=1;jettySize=auto;html=1;entryX=0.5;entryY=0;entryDx=0;entryDy=0;fontSize=13;fontStyle=1" parent="1" source="QcOfOcUlasyj0Duc0Whq-32" target="QcOfOcUlasyj0Duc0Whq-34" edge="1">
          <mxGeometry relative="1" as="geometry">
            <Array as="points">
              <mxPoint x="690" y="490" />
            </Array>
          </mxGeometry>
        </mxCell>
        <mxCell id="QcOfOcUlasyj0Duc0Whq-43" style="edgeStyle=orthogonalEdgeStyle;rounded=0;orthogonalLoop=1;jettySize=auto;html=1;entryX=0;entryY=0.5;entryDx=0;entryDy=0;fontSize=13;fontStyle=1" parent="1" source="QcOfOcUlasyj0Duc0Whq-32" target="QcOfOcUlasyj0Duc0Whq-28" edge="1">
          <mxGeometry relative="1" as="geometry">
            <Array as="points">
              <mxPoint x="410" y="490" />
              <mxPoint x="410" y="345" />
            </Array>
          </mxGeometry>
        </mxCell>
        <mxCell id="QcOfOcUlasyj0Duc0Whq-32" value="triangleSquare &amp;gt; buffer[0]" style="rhombus;whiteSpace=wrap;html=1;fontSize=13;fontStyle=1" parent="1" vertex="1">
          <mxGeometry x="470" y="460" width="180" height="60" as="geometry" />
        </mxCell>
        <mxCell id="QcOfOcUlasyj0Duc0Whq-36" style="edgeStyle=orthogonalEdgeStyle;rounded=0;orthogonalLoop=1;jettySize=auto;html=1;fontSize=13;fontStyle=1" parent="1" source="QcOfOcUlasyj0Duc0Whq-34" target="QcOfOcUlasyj0Duc0Whq-35" edge="1">
          <mxGeometry relative="1" as="geometry" />
        </mxCell>
        <mxCell id="QcOfOcUlasyj0Duc0Whq-34" value="buffer[0] = triangleSquare" style="rounded=0;whiteSpace=wrap;html=1;fontSize=13;fontStyle=1" parent="1" vertex="1">
          <mxGeometry x="630" y="537" width="120" height="40" as="geometry" />
        </mxCell>
        <mxCell id="QcOfOcUlasyj0Duc0Whq-46" style="edgeStyle=orthogonalEdgeStyle;rounded=0;orthogonalLoop=1;jettySize=auto;html=1;entryX=0.105;entryY=1.053;entryDx=0;entryDy=0;entryPerimeter=0;fontSize=13;fontStyle=1" parent="1" source="QcOfOcUlasyj0Duc0Whq-35" target="QcOfOcUlasyj0Duc0Whq-45" edge="1">
          <mxGeometry relative="1" as="geometry" />
        </mxCell>
        <mxCell id="QcOfOcUlasyj0Duc0Whq-35" value="buffer[1] = i" style="rounded=0;whiteSpace=wrap;html=1;fontSize=13;fontStyle=1" parent="1" vertex="1">
          <mxGeometry x="630" y="597" width="120" height="35" as="geometry" />
        </mxCell>
        <mxCell id="QcOfOcUlasyj0Duc0Whq-40" value="True" style="text;strokeColor=none;fillColor=none;html=1;fontSize=20;fontStyle=1;verticalAlign=middle;align=center;" parent="1" vertex="1">
          <mxGeometry x="630" y="450" width="100" height="40" as="geometry" />
        </mxCell>
        <mxCell id="QcOfOcUlasyj0Duc0Whq-45" value="False" style="text;strokeColor=none;fillColor=none;html=1;fontSize=20;fontStyle=1;verticalAlign=middle;align=center;" parent="1" vertex="1">
          <mxGeometry x="400" y="450" width="100" height="40" as="geometry" />
        </mxCell>
        <mxCell id="QcOfOcUlasyj0Duc0Whq-51" style="edgeStyle=orthogonalEdgeStyle;rounded=0;orthogonalLoop=1;jettySize=auto;html=1;entryX=0.5;entryY=0;entryDx=0;entryDy=0;fontSize=13;fontStyle=1" parent="1" source="QcOfOcUlasyj0Duc0Whq-48" target="QcOfOcUlasyj0Duc0Whq-50" edge="1">
          <mxGeometry relative="1" as="geometry" />
        </mxCell>
        <mxCell id="QcOfOcUlasyj0Duc0Whq-48" value="Вывод Buffer[1]" style="shape=parallelogram;perimeter=parallelogramPerimeter;whiteSpace=wrap;html=1;fixedSize=1;fontSize=13;fontStyle=1" parent="1" vertex="1">
          <mxGeometry x="500" y="690" width="120" height="40" as="geometry" />
        </mxCell>
        <mxCell id="QcOfOcUlasyj0Duc0Whq-50" value="Конец" style="rounded=1;whiteSpace=wrap;html=1;fontSize=20;fontStyle=1" parent="1" vertex="1">
          <mxGeometry x="500" y="760" width="120" height="60" as="geometry" />
        </mxCell>
        <mxCell id="byHE57jVhLd3wYmcXYX9-4" style="edgeStyle=orthogonalEdgeStyle;rounded=0;orthogonalLoop=1;jettySize=auto;html=1;entryX=0.5;entryY=0;entryDx=0;entryDy=0;fontSize=13;" edge="1" parent="1" source="byHE57jVhLd3wYmcXYX9-1" target="QcOfOcUlasyj0Duc0Whq-21">
          <mxGeometry relative="1" as="geometry">
            <Array as="points">
              <mxPoint x="170" y="830" />
              <mxPoint x="170" y="830" />
            </Array>
          </mxGeometry>
        </mxCell>
        <mxCell id="byHE57jVhLd3wYmcXYX9-1" value="&lt;font style=&quot;font-size: 13px&quot;&gt;&lt;b&gt;double formula=&lt;br&gt;вычисление площади по формуле и полученным координатам&lt;/b&gt;&lt;/font&gt;" style="rounded=0;whiteSpace=wrap;html=1;fontSize=20;" vertex="1" parent="1">
          <mxGeometry x="60" y="750" width="230" height="70" as="geometry" />
        </mxCell>
      </root>
    </mxGraphModel>
  </diagram>
</mxfile>
